<svg xmlns="http://www.w3.org/2000/svg" viewBox="0 0 256 256" width="256" height="256" role="img" aria-hidden="true">
<rect width="256" height="256" fill="#5B6478" />
<line x1="22.6" y1="61.2" x2="71.3" y2="39.2" stroke="#2FA6A6" stroke-opacity="0.20" stroke-width="1.3" />
<line x1="74.1" y1="80.1" x2="211.7" y2="80.5" stroke="#2FA6A6" stroke-opacity="0.15" stroke-width="2.6" />
<line x1="133.9" y1="117.1" x2="224.2" y2="171.0" stroke="#2FA6A6" stroke-opacity="0.24" stroke-width="2.6" />
<line x1="216.7" y1="219.8" x2="43.8" y2="17.6" stroke="#2FA6A6" stroke-opacity="0.26" stroke-width="2.2" />
<line x1="129.6" y1="87.7" x2="90.3" y2="43.3" stroke="#2FA6A6" stroke-opacity="0.13" stroke-width="2.0" />
<polygon points="13.6,43.5 20.5,13.6 50.4,20.5 43.5,50.4" fill="#2FA6A6" opacity="0.53" />
<rect x="198" y="6" width="52" height="52" fill="#2FA6A6" opacity="0.53" />
<polygon points="75.1,217.9 102.1,203.1 116.9,230.1 89.9,244.9" fill="#10141F" opacity="0.86" />
<polygon points="171.1,242.7 141.3,235.1 148.9,205.3 178.7,212.9" fill="#10141F" opacity="0.86" />
<circle cx="130.3" cy="181.6" r="57.4" fill="#5B6478" opacity="0.25" />
<circle cx="159.7" cy="111.4" r="63.8" fill="#10141F" opacity="0.40" />
<circle cx="111.9" cy="69.9" r="27.2" fill="#F5F6F8" opacity="0.34" />
<polygon points="235.0,90.7 225.5,169.0 162.4,121.6" fill="#F5F6F8" opacity="0.21" />
</svg>
