<svg xmlns="http://www.w3.org/2000/svg" viewBox="0 0 256 256" width="256" height="256" role="img" aria-hidden="true">
<rect width="256" height="256" fill="#C0533E" />
<line x1="219.3" y1="65.8" x2="200.8" y2="211.8" stroke="#5B6478" stroke-opacity="0.23" stroke-width="1.9" />
<line x1="166.7" y1="111.1" x2="193.1" y2="20.0" stroke="#5B6478" stroke-opacity="0.17" stroke-width="2.2" />
<line x1="166.9" y1="29.1" x2="143.2" y2="114.4" stroke="#5B6478" stroke-opacity="0.19" stroke-width="2.2" />
<polygon points="22.3,51.5 12.5,22.3 41.7,12.5 51.5,41.7" fill="#D6A93B" opacity="0.69" />
<rect x="198" y="6" width="52" height="52" fill="#D6A93B" opacity="0.69" />
<rect x="70" y="6" width="52" height="52" fill="#5B6478" opacity="0.64" />
<polygon points="166.8,52.7 139.3,38.8 153.2,11.3 180.7,25.2" fill="#5B6478" opacity="0.64" />
<polygon points="53.6,98.5 29.5,117.6 10.4,93.5 34.5,74.4" fill="#D6A93B" opacity="0.87" />
<polygon points="228.3,117.3 202.7,100.3 219.7,74.7 245.3,91.7" fill="#D6A93B" opacity="0.87" />
<polygon points="79.6,174.3 81.7,143.6 112.4,145.7 110.3,176.4" fill="#D6A93B" opacity="0.80" />
<rect x="134" y="134" width="52" height="52" fill="#D6A93B" opacity="0.80" />
<rect x="6" y="198" width="52" height="52" fill="#D6A93B" opacity="0.42" />
<polygon points="207.9,209.4 238.6,207.9 240.1,238.6 209.4,240.1" fill="#D6A93B" opacity="0.42" />
<polygon points="194.5,123.1 155.9,34.5 251.9,45.4" fill="#5B6478" opacity="0.32" />
<polygon points="183.7,173.2 145.0,253.0 95.3,179.7" fill="#10141F" opacity="0.33" />
</svg>
