<svg xmlns="http://www.w3.org/2000/svg" viewBox="0 0 256 256" width="256" height="256" role="img" aria-hidden="true">
<rect width="256" height="256" fill="#10141F" />
<line x1="195.3" y1="171.9" x2="128.0" y2="249.7" stroke="#D6A93B" stroke-opacity="0.16" stroke-width="1.1" />
<line x1="192.8" y1="171.9" x2="142.2" y2="151.8" stroke="#D6A93B" stroke-opacity="0.16" stroke-width="1.9" />
<line x1="125.4" y1="78.0" x2="142.5" y2="161.8" stroke="#D6A93B" stroke-opacity="0.15" stroke-width="1.3" />
<line x1="51.8" y1="85.1" x2="80.2" y2="48.9" stroke="#D6A93B" stroke-opacity="0.26" stroke-width="2.8" />
<polygon points="83.2,49.6 78.4,19.2 108.8,14.4 113.6,44.8" fill="#D6A93B" opacity="0.45" />
<polygon points="171.1,13.3 178.7,43.1 148.9,50.7 141.3,20.9" fill="#D6A93B" opacity="0.45" />
<rect x="6" y="70" width="52" height="52" fill="#D6A93B" opacity="0.36" />
<polygon points="208.2,81.0 239.0,80.2 239.8,111.0 209.0,111.8" fill="#D6A93B" opacity="0.36" />
<rect x="70" y="198" width="52" height="52" fill="#2FA6A6" opacity="0.46" />
<polygon points="180.8,217.7 166.3,244.8 139.2,230.3 153.7,203.2" fill="#2FA6A6" opacity="0.46" />
<circle cx="58.3" cy="70.1" r="49.8" fill="#D6A93B" opacity="0.29" />
<circle cx="66.7" cy="71.8" r="65.0" fill="#F5F6F8" opacity="0.33" />
<polygon points="113.6,172.0 72.1,153.5 108.9,126.7" fill="#5B6478" opacity="0.39" />
<polygon points="92.5,86.9 188.6,99.8 129.3,176.6" fill="#5B6478" opacity="0.29" />
</svg>
