<svg xmlns="http://www.w3.org/2000/svg" viewBox="0 0 256 256" width="256" height="256" role="img" aria-hidden="true">
<rect width="256" height="256" fill="#D6A93B" />
<line x1="230.9" y1="197.3" x2="138.7" y2="216.4" stroke="#2FA6A6" stroke-opacity="0.22" stroke-width="2.0" />
<line x1="93.2" y1="255.7" x2="95.9" y2="4.4" stroke="#2FA6A6" stroke-opacity="0.15" stroke-width="2.7" />
<line x1="135.4" y1="68.4" x2="172.3" y2="112.2" stroke="#2FA6A6" stroke-opacity="0.24" stroke-width="1.1" />
<polygon points="82.6,49.2 78.8,18.6 109.4,14.8 113.2,45.4" fill="#2FA6A6" opacity="0.56" />
<rect x="134" y="6" width="52" height="52" fill="#2FA6A6" opacity="0.56" />
<polygon points="19.1,78.5 49.5,83.1 44.9,113.5 14.5,108.9" fill="#2FA6A6" opacity="0.90" />
<rect x="198" y="70" width="52" height="52" fill="#2FA6A6" opacity="0.90" />
<rect x="70" y="70" width="52" height="52" fill="#C0533E" opacity="0.74" />
<rect x="134" y="70" width="52" height="52" fill="#C0533E" opacity="0.74" />
<polygon points="10.4,162.4 29.6,138.4 53.6,157.6 34.4,181.6" fill="#2FA6A6" opacity="0.87" />
<polygon points="203.2,166.3 217.7,139.2 244.8,153.7 230.3,180.8" fill="#2FA6A6" opacity="0.87" />
<rect x="70" y="134" width="52" height="52" fill="#C0533E" opacity="0.35" />
<polygon points="144.2,174.9 145.1,144.2 175.8,145.1 174.9,175.8" fill="#C0533E" opacity="0.35" />
<polygon points="109.7,240.9 79.1,237.7 82.3,207.1 112.9,210.3" fill="#C0533E" opacity="0.51" />
<rect x="134" y="198" width="52" height="52" fill="#C0533E" opacity="0.51" />
<circle cx="90.1" cy="78.8" r="68.1" fill="#C0533E" opacity="0.29" />
<circle cx="89.4" cy="118.9" r="29.8" fill="#2FA6A6" opacity="0.44" />
<polygon points="141.8,250.2 118.8,194.0 179.0,202.2" fill="#10141F" opacity="0.35" />
<polygon points="144.3,227.3 73.6,238.1 99.7,171.5" fill="#10141F" opacity="0.43" />
</svg>
