<svg xmlns="http://www.w3.org/2000/svg" viewBox="0 0 256 256" width="256" height="256" role="img" aria-hidden="true">
<rect width="256" height="256" fill="#2FA6A6" />
<line x1="141.9" y1="249.7" x2="58.9" y2="186.5" stroke="#D6A93B" stroke-opacity="0.27" stroke-width="1.1" />
<line x1="82.9" y1="188.9" x2="62.1" y2="210.8" stroke="#D6A93B" stroke-opacity="0.19" stroke-width="2.6" />
<line x1="205.8" y1="205.7" x2="165.5" y2="164.3" stroke="#D6A93B" stroke-opacity="0.27" stroke-width="1.8" />
<polygon points="13.0,21.4 42.6,13.0 51.0,42.6 21.4,51.0" fill="#D6A93B" opacity="0.84" />
<rect x="198" y="6" width="52" height="52" fill="#D6A93B" opacity="0.84" />
<polygon points="90.6,53.1 74.9,26.6 101.4,10.9 117.1,37.4" fill="#10141F" opacity="0.65" />
<rect x="134" y="6" width="52" height="52" fill="#10141F" opacity="0.65" />
<polygon points="95.6,74.2 117.8,95.6 96.4,117.8 74.2,96.4" fill="#D6A93B" opacity="0.74" />
<rect x="134" y="70" width="52" height="52" fill="#D6A93B" opacity="0.74" />
<rect x="70" y="134" width="52" height="52" fill="#10141F" opacity="0.45" />
<rect x="134" y="134" width="52" height="52" fill="#10141F" opacity="0.45" />
<rect x="70" y="198" width="52" height="52" fill="#D6A93B" opacity="0.72" />
<rect x="134" y="198" width="52" height="52" fill="#D6A93B" opacity="0.72" />
<polygon points="124.2,182.3 81.2,152.5 128.5,130.2" fill="#10141F" opacity="0.36" />
<circle cx="90.6" cy="52.3" r="58.6" fill="#10141F" opacity="0.46" />
<circle cx="43.7" cy="159.8" r="47.4" fill="#2FA6A6" opacity="0.34" />
</svg>
