<svg xmlns="http://www.w3.org/2000/svg" viewBox="0 0 256 256" width="256" height="256" role="img" aria-hidden="true">
<rect width="256" height="256" fill="#C0533E" />
<line x1="37.3" y1="100.5" x2="18.5" y2="125.0" stroke="#5B6478" stroke-opacity="0.23" stroke-width="1.2" />
<line x1="37.3" y1="227.9" x2="138.9" y2="21.3" stroke="#5B6478" stroke-opacity="0.19" stroke-width="1.6" />
<line x1="130.1" y1="175.7" x2="78.8" y2="130.8" stroke="#5B6478" stroke-opacity="0.23" stroke-width="1.4" />
<line x1="154.3" y1="56.3" x2="198.4" y2="8.7" stroke="#5B6478" stroke-opacity="0.26" stroke-width="1.8" />
<line x1="7.4" y1="103.1" x2="164.4" y2="59.7" stroke="#5B6478" stroke-opacity="0.14" stroke-width="1.4" />
<line x1="159.9" y1="184.7" x2="5.5" y2="208.3" stroke="#5B6478" stroke-opacity="0.15" stroke-width="1.0" />
<polygon points="117.7,162.0 94.0,181.7 74.3,158.0 98.0,138.3" fill="#5B6478" opacity="0.37" />
<polygon points="159.9,181.8 138.2,159.9 160.1,138.2 181.8,160.1" fill="#5B6478" opacity="0.37" />
<rect x="70" y="198" width="52" height="52" fill="#F5F6F8" opacity="0.84" />
<polygon points="181.7,224.9 159.1,245.7 138.3,223.1 160.9,202.3" fill="#F5F6F8" opacity="0.84" />
<polygon points="102.1,122.1 145.9,188.8 66.3,193.4" fill="#D6A93B" opacity="0.33" />
<polygon points="138.8,169.4 143.7,105.8 196.3,141.9" fill="#C0533E" opacity="0.32" />
<circle cx="82.4" cy="81.5" r="59.4" fill="#F5F6F8" opacity="0.33" />
</svg>
